<?xml version="1.0" encoding="UTF-8"?>
<svg width="59px" height="37px" viewBox="0 0 59 37" version="1.1" xmlns="http://www.w3.org/2000/svg" xmlns:xlink="http://www.w3.org/1999/xlink">
    <g id="Welcome" stroke="none" stroke-width="1" fill="none" fill-rule="evenodd">
        <g id="Desktop-4" transform="translate(-184.000000, -245.000000)" fill="#000000">
            <g id="About-text" transform="translate(35.000000, 183.000000)">
                <g id="p1" transform="translate(18.000000, 0.000000)">
                    <g id="Group" transform="translate(131.000000, 62.000000)">
                        <path d="M0,23 L24,23 L24,37 L0,37 L0,23 Z M1.11904155,23.6341547 C0.938149429,23.5108664 0.688706885,23.5534901 0.561896033,23.7293575 C0.435085181,23.9052248 0.478926711,24.1477384 0.659818831,24.2710267 L11.8151037,31.8739915 C11.9534677,31.9682945 12.1378585,31.967894 12.2757877,31.8729909 L23.4310726,24.1975231 C23.6113963,24.0734502 23.6541228,23.8307486 23.5265049,23.6554339 C23.3988871,23.4801192 23.1492511,23.4385795 22.9689274,23.5626524 L12.043622,31.0798813 L1.11904155,23.6341547 Z M23.3401812,35.7815972 L15.5312176,30.4593418 C15.3503255,30.3360535 15.1008829,30.3786772 14.9740721,30.5545445 C14.8472612,30.7304119 14.8911028,30.9729254 15.0719949,31.0962138 L22.8809585,36.4184692 C23.0618506,36.5417575 23.3112931,36.4991338 23.438104,36.3232665 C23.5649148,36.1473991 23.5210733,35.9048855 23.3401812,35.7815972 Z M8.33151125,30.5140035 L0.568927434,35.8551008 C0.38860374,35.9791737 0.345877216,36.2218754 0.47349507,36.3971901 C0.601112925,36.5725048 0.850748873,36.6140444 1.03107257,36.4899715 L8.79365639,31.1488742 C8.97398008,31.0248013 9.0167066,30.7820997 8.88908875,30.606785 C8.7614709,30.4314703 8.51183495,30.3899306 8.33151125,30.5140035 Z" id="mail"></path>
                        <path d="M0,9 L12.039094,0.77159795 L24,9 L24,23 L0,23 L0,9 Z M15.6684887,15.4859965 L23.4310726,10.1448992 C23.6113963,10.0208263 23.6541228,9.77812464 23.5265049,9.60280994 C23.3988871,9.42749524 23.1492511,9.38595556 22.9689274,9.51002848 L15.2063436,14.8511258 C15.0260199,14.9751987 14.9832934,15.2179003 15.1109113,15.393215 C15.2385291,15.5685297 15.4881651,15.6100694 15.6684887,15.4859965 Z M0.659818831,10.2184028 L8.46878241,15.5406582 C8.64967453,15.6639465 8.89911707,15.6213228 9.02592792,15.4454555 C9.15273877,15.2695881 9.10889724,15.0270746 8.92800512,14.9037862 L1.11904155,9.58153082 C0.938149429,9.45824249 0.688706885,9.5008662 0.561896033,9.67673354 C0.435085181,9.85260088 0.478926711,10.0951145 0.659818831,10.2184028 Z M22.8809585,22.3658453 C23.0618506,22.4891336 23.3112931,22.4465099 23.438104,22.2706425 C23.5649148,22.0947752 23.5210733,21.8522616 23.3401812,21.7289733 L12.1848963,14.1260085 C12.0465323,14.0317055 11.8621415,14.032106 11.7242123,14.1270091 L0.568927434,21.8024769 C0.38860374,21.9265498 0.345877216,22.1692514 0.47349507,22.3445661 C0.601112925,22.5198808 0.850748873,22.5614205 1.03107257,22.4373476 L11.956378,14.9201187 L22.8809585,22.3658453 Z" id="Combined-Shape"></path>
                        <path d="M26.6223444,15.6666667 L24,15.6666667 L24,17 L59,17 L59,15.6666667 L37.2365273,15.6666667 L38.537299,15.6456806 L35.9149547,13 L35.9149547,15.6666667 L27.943917,15.6666667 L27.943917,13 L25.3215726,15.6456806 L26.6223444,15.6666667 Z M24,18.3333333 L59,18.3333333 L59,37 L24,37 L24,18.3333333 Z M27.9647179,15.6666667 L35.8941538,15.6666667 L35.8941538,13 L27.9647179,13 L27.9647179,15.6666667 Z" id="folder-icon"></path>
                    </g>
                </g>
            </g>
        </g>
    </g>
</svg>
